<?xml version="1.0" standalone="no"?>
<!DOCTYPE svg PUBLIC "-//W3C//DTD SVG 20010904//EN"
 "http://www.w3.org/TR/2001/REC-SVG-20010904/DTD/svg10.dtd">
<svg version="1.0" xmlns="http://www.w3.org/2000/svg"
 width="199.000000pt" height="90.000000pt" viewBox="0 0 199.000000 90.000000"
 preserveAspectRatio="xMidYMid meet">

<g transform="translate(0.000000,90.000000) scale(0.100000,-0.100000)"
fill="#000000" stroke="none">
<path d="M1196 841 c-8 -12 10 -21 96 -47 85 -25 90 -38 20 -53 -69 -15 -224
-90 -271 -131 -32 -27 -27 -26 55 16 121 60 220 84 379 91 72 3 136 10 142 15
18 14 0 43 -34 56 -109 44 -371 80 -387 53z"/>
<path d="M72 638 c3 -46 6 -53 26 -56 22 -3 22 -6 22 -138 l0 -134 -25 0 c-23
0 -25 -3 -25 -50 l0 -50 100 0 100 0 0 50 c0 47 -2 50 -25 50 -25 0 -25 1 -25
82 0 95 -8 101 94 -69 l67 -113 85 0 84 0 0 184 c0 175 1 184 20 189 17 4 20
14 20 56 l0 51 -96 0 -95 0 3 -52 c3 -46 6 -53 26 -56 21 -3 22 -8 22 -85 l0
-82 -82 138 -83 137 -108 0 -108 0 3 -52z"/>
<path d="M710 512 c-42 -22 -80 -90 -80 -142 1 -60 33 -116 82 -141 53 -27
154 -30 211 -6 35 15 37 18 37 61 0 49 -4 53 -34 31 -23 -17 -98 -20 -127 -5
-10 6 -19 19 -19 30 0 17 9 20 93 22 l92 3 -2 39 c-5 80 -63 126 -158 126 -39
0 -73 -6 -95 -18z m128 -64 c24 -24 13 -38 -28 -38 -43 0 -45 2 -30 31 12 21
40 25 58 7z"/>
<path d="M997 523 c-4 -3 -7 -23 -7 -44 0 -26 5 -38 18 -41 11 -3 29 -40 56
-116 l38 -112 78 0 78 0 20 57 19 58 20 -55 21 -55 77 0 78 0 40 113 c24 69
45 112 53 112 10 0 14 14 14 45 l0 45 -75 0 -75 0 0 -45 c0 -33 4 -45 15 -45
8 0 15 -3 15 -7 0 -16 -34 -113 -40 -113 -4 0 -20 46 -36 103 l-30 102 -49 0
-48 0 -30 -97 c-17 -54 -33 -98 -37 -98 -6 0 -30 80 -30 100 0 6 7 10 15 10
11 0 15 12 15 45 l0 45 -103 0 c-57 0 -107 -3 -110 -7z"/>
<path d="M1678 514 c-33 -18 -48 -43 -48 -83 0 -43 36 -78 100 -99 42 -13 55
-22 55 -37 0 -29 -31 -30 -60 -1 -18 18 -37 26 -60 26 l-35 0 0 -55 0 -55 35
0 c19 0 35 5 35 11 0 7 7 8 18 4 38 -16 100 -23 136 -15 57 13 86 45 86 95 0
55 -20 80 -83 100 -58 19 -83 38 -73 54 12 19 41 12 66 -14 23 -25 44 -30 74
-19 12 4 16 20 16 55 l0 49 -34 0 c-19 0 -36 -5 -38 -11 -3 -9 -9 -9 -25 0
-30 16 -133 13 -165 -5z"/>
</g>
</svg>
